<svg width="25" height="25" viewBox="0 0 25 25" fill="none" xmlns="http://www.w3.org/2000/svg">
<path fill-rule="evenodd" clip-rule="evenodd" d="M15.8734 8.25007C15.6664 8.02792 15.5537 7.73409 15.5591 7.4305C15.5645 7.1269 15.6874 6.83724 15.9022 6.62253C16.1169 6.40782 16.4065 6.28484 16.7101 6.27948C17.0137 6.27412 17.3075 6.38681 17.5297 6.59381L22.6094 11.6719L23.4375 12.5001L22.6094 13.3282L17.5312 18.4063C17.3103 18.6199 17.0144 18.7381 16.7071 18.7356C16.3998 18.7331 16.1059 18.61 15.8885 18.3928C15.6711 18.1756 15.5477 17.8818 15.5449 17.5745C15.5421 17.2673 15.6601 16.9712 15.8734 16.7501L18.9516 13.6719H2.73438C2.42357 13.6719 2.1255 13.5485 1.90574 13.3287C1.68597 13.1089 1.5625 12.8109 1.5625 12.5001C1.5625 12.1893 1.68597 11.8912 1.90574 11.6714C2.1255 11.4517 2.42357 11.3282 2.73438 11.3282H18.9516L15.8734 8.25007Z" fill="white"/>
</svg>
