<svg width="25" height="25" viewBox="0 0 25 25" fill="none" xmlns="http://www.w3.org/2000/svg">
<path fill-rule="evenodd" clip-rule="evenodd" d="M9.12656 8.25007C9.33356 8.02792 9.44625 7.73409 9.4409 7.4305C9.43554 7.1269 9.31255 6.83724 9.09785 6.62253C8.88314 6.40782 8.59347 6.28484 8.28988 6.27948C7.98628 6.27412 7.69246 6.38681 7.47031 6.59381L2.39062 11.6719L1.5625 12.5001L2.39062 13.3282L7.46875 18.4063C7.68967 18.6199 7.98563 18.7381 8.29289 18.7356C8.60016 18.7331 8.89414 18.61 9.11152 18.3928C9.3289 18.1756 9.45228 17.8818 9.45509 17.5745C9.45791 17.2673 9.33993 16.9712 9.12656 16.7501L6.04844 13.6719H22.2656C22.5764 13.6719 22.8745 13.5485 23.0943 13.3287C23.314 13.1089 23.4375 12.8109 23.4375 12.5001C23.4375 12.1893 23.314 11.8912 23.0943 11.6714C22.8745 11.4517 22.5764 11.3282 22.2656 11.3282H6.04844L9.12656 8.25007Z" fill="white"/>
</svg>
