<svg width="17" height="17" viewBox="0 0 17 17" fill="none" xmlns="http://www.w3.org/2000/svg">
<path d="M6.37524 11.475L3.89608 8.99585C3.83125 8.93023 3.75404 8.87813 3.66893 8.84257C3.58381 8.80701 3.49249 8.7887 3.40024 8.7887C3.308 8.7887 3.21668 8.80701 3.13156 8.84257C3.04645 8.87813 2.96924 8.93023 2.90441 8.99585C2.83879 9.06068 2.78669 9.13789 2.75113 9.223C2.71558 9.30811 2.69727 9.39944 2.69727 9.49168C2.69727 9.58392 2.71558 9.67525 2.75113 9.76036C2.78669 9.84548 2.83879 9.92269 2.90441 9.98752L5.87233 12.9554C6.14858 13.2317 6.59483 13.2317 6.87108 12.9554L14.3794 5.45418C14.445 5.38935 14.4971 5.31214 14.5327 5.22703C14.5682 5.14192 14.5866 5.05059 14.5866 4.95835C14.5866 4.86611 14.5682 4.77478 14.5327 4.68967C14.4971 4.60455 14.445 4.52734 14.3794 4.46252C14.3146 4.3969 14.2374 4.3448 14.1523 4.30924C14.0671 4.27368 13.9758 4.25537 13.8836 4.25537C13.7913 4.25537 13.7 4.27368 13.6149 4.30924C13.5298 4.3448 13.4526 4.3969 13.3877 4.46252L6.37524 11.475Z" fill="white"/>
</svg>
