<svg width="19" height="19" viewBox="0 0 19 19" fill="none" xmlns="http://www.w3.org/2000/svg">
<path d="M4.61074 2.87533L9.50008 7.76467L14.3641 2.90067C14.4715 2.78631 14.6009 2.69483 14.7446 2.6317C14.8883 2.56858 15.0432 2.53512 15.2001 2.53333C15.536 2.53333 15.8582 2.66678 16.0957 2.90433C16.3333 3.14188 16.4667 3.46406 16.4667 3.8C16.4697 3.9553 16.4409 4.10956 16.3821 4.25332C16.3233 4.39708 16.2357 4.5273 16.1247 4.636L11.1974 9.5L16.1247 14.4273C16.3335 14.6316 16.4559 14.9081 16.4667 15.2C16.4667 15.5359 16.3333 15.8581 16.0957 16.0957C15.8582 16.3332 15.536 16.4667 15.2001 16.4667C15.0386 16.4734 14.8776 16.4464 14.7271 16.3875C14.5767 16.3287 14.4401 16.2391 14.3261 16.1247L9.50008 11.2353L4.62341 16.112C4.51638 16.2225 4.38852 16.3108 4.24721 16.3717C4.1059 16.4325 3.95393 16.4648 3.80008 16.4667C3.46413 16.4667 3.14195 16.3332 2.90441 16.0957C2.66686 15.8581 2.53341 15.5359 2.53341 15.2C2.53046 15.0447 2.55927 14.8904 2.61808 14.7467C2.67689 14.6029 2.76446 14.4727 2.87541 14.364L7.80274 9.5L2.87541 4.57267C2.66664 4.36843 2.54423 4.09185 2.53341 3.8C2.53341 3.46406 2.66686 3.14188 2.90441 2.90433C3.14195 2.66678 3.46413 2.53333 3.80008 2.53333C4.10408 2.53713 4.39541 2.66 4.61074 2.87533Z" fill="#707070"/>
</svg>
