<svg width="13" height="10" viewBox="0 0 13 10" fill="none" xmlns="http://www.w3.org/2000/svg">
<path d="M4.37524 7.47502L1.89608 4.99585C1.83125 4.93023 1.75404 4.87813 1.66893 4.84257C1.58381 4.80701 1.49249 4.7887 1.40024 4.7887C1.308 4.7887 1.21668 4.80701 1.13156 4.84257C1.04645 4.87813 0.969239 4.93023 0.90441 4.99585C0.83879 5.06068 0.786691 5.13789 0.751133 5.223C0.715575 5.30811 0.697266 5.39944 0.697266 5.49168C0.697266 5.58392 0.715575 5.67525 0.751133 5.76036C0.786691 5.84548 0.83879 5.92269 0.90441 5.98752L3.87233 8.95543C4.14858 9.23168 4.59483 9.23168 4.87108 8.95543L12.3794 1.45418C12.445 1.38935 12.4971 1.31214 12.5327 1.22703C12.5682 1.14192 12.5866 1.05059 12.5866 0.958349C12.5866 0.866106 12.5682 0.774781 12.5327 0.689667C12.4971 0.604553 12.445 0.527344 12.3794 0.462516C12.3146 0.396896 12.2374 0.344797 12.1523 0.309239C12.0671 0.273681 11.9758 0.255371 11.8836 0.255371C11.7913 0.255371 11.7 0.273681 11.6149 0.309239C11.5298 0.344797 11.4526 0.396896 11.3877 0.462516L4.37524 7.47502Z" fill="white"/>
</svg>
