<svg width="60" height="60" viewBox="0 0 60 60" fill="none" xmlns="http://www.w3.org/2000/svg">
<path d="M6.85714 29.2857H30V31H6.85714V29.2857ZM3 20H22.2857V22H3V20Z" fill="white"/>
<path d="M56.8449 30.1818L51.0988 16.2017C50.9513 15.8424 50.7059 15.5361 50.3929 15.321C50.08 15.1058 49.7134 14.9912 49.3385 14.9915H43.5925V10.9972C43.5925 10.4675 43.3907 9.95949 43.0315 9.58495C42.6723 9.21041 42.1851 9 41.6771 9H11.0313L11.0836 11.0438H41.0291V39.6569C40.1563 40.1854 39.4439 40.863 38.8331 41.7007C38.2223 42.5385 38.0345 43.2336 37.8349 44.7664H22.7771C22.7771 43.8963 22.5627 42.1243 21.0654 40.6788C19.522 39.5876 18.2433 39.146 16.7774 39.146C16.0745 39.146 14.0781 39.146 12.5808 40.6788C11.3481 42.1378 11 43.0044 11 44.9487C11 46.8931 11.8821 48.3431 12.3812 48.854C13.6139 50.3129 14.9275 50.7209 16.7774 50.9659C18.2433 50.9659 19.8676 50.3869 20.8658 49.365C21.864 48.3431 22.0636 47.8321 22.5627 46.9459H38.0345C38.5336 48.3431 38.6925 48.79 40.0309 49.8759C41.0291 50.6858 42.1271 51 43.6243 51C45.3202 51 47.0182 49.8759 47.5173 49.365C48.1535 48.7136 48.5154 48.3431 49.0145 46.9459H55.0846C55.5926 46.9459 56.0798 46.7355 56.439 46.361C56.7982 45.9864 57 45.4784 57 44.9487V30.9687C57.0001 30.6981 56.9473 30.4304 56.8449 30.1818ZM16.7774 48.9431C16.0197 48.9431 15.2791 48.7088 14.6491 48.2699C14.0192 47.831 13.5282 47.2072 13.2382 46.4773C12.9483 45.7474 12.8724 44.9443 13.0202 44.1695C13.168 43.3947 13.5329 42.683 14.0686 42.1243C14.6044 41.5657 15.2869 41.1853 16.03 41.0312C16.7731 40.8771 17.5433 40.9562 18.2433 41.2585C18.9433 41.5608 19.5416 42.0728 19.9625 42.7296C20.3834 43.3865 20.6081 44.1587 20.6081 44.9487C20.6071 46.0078 20.2032 47.0231 19.485 47.772C18.7668 48.5208 17.793 48.942 16.7774 48.9431ZM43.5925 17.1752H49.0145L54.5045 29.438H43.5925V17.1752ZM43.5925 48.9431C42.8348 48.9431 42.0942 48.7088 41.4642 48.2699C40.8343 47.831 40.3433 47.2072 40.0533 46.4773C39.7634 45.7474 39.6875 44.9443 39.8353 44.1695C39.9831 43.3947 40.348 42.683 40.8837 42.1243C41.4195 41.5657 42.102 41.1853 42.8451 41.0312C43.5882 40.8771 44.3584 40.9562 45.0584 41.2585C45.7584 41.5608 46.3567 42.0728 46.7776 42.7296C47.1985 43.3865 47.4232 44.1587 47.4232 44.9487C47.4222 46.0078 47.0182 47.0231 46.3001 47.772C45.5819 48.5208 44.6081 48.942 43.5925 48.9431ZM54.5045 44.7664H49.2142C49.2142 42.7226 48.2826 41.2356 47.2178 40.3723C46.02 39.4011 45.0218 39.146 43.5245 39.146V31.4818H54.5045V44.7664Z" fill="white"/>
</svg>
