<svg width="31" height="31" viewBox="0 0 31 31" fill="none" xmlns="http://www.w3.org/2000/svg">
<g clip-path="url(#clip0_47_81)">
<path d="M15.5 0C11.3901 0 7.44484 1.63404 4.54102 4.5398C1.63419 7.44672 0.0008052 11.3891 0 15.5C0 19.6092 1.63477 23.5544 4.54102 26.4602C7.44484 29.366 11.3901 31 15.5 31C19.6099 31 23.5552 29.366 26.459 26.4602C29.3652 23.5544 31 19.6092 31 15.5C31 11.3908 29.3652 7.44557 26.459 4.5398C23.5552 1.63404 19.6099 0 15.5 0Z" fill="url(#paint0_linear_47_81)"/>
<path d="M7.01633 15.3361C11.5356 13.3676 14.5484 12.0697 16.0548 11.4427C20.3609 9.65216 21.2545 9.34119 21.8382 9.33066C21.9666 9.3286 22.2524 9.36033 22.4388 9.51109C22.5938 9.63824 22.6374 9.81019 22.6592 9.93092C22.6786 10.0515 22.7052 10.3264 22.6834 10.541C22.4509 12.9919 21.441 18.9396 20.9276 21.6848C20.712 22.8463 20.2834 23.2357 19.8692 23.2738C18.9683 23.3566 18.2853 22.6789 17.4134 22.1076C16.0499 21.2132 15.2798 20.6567 13.955 19.7841C12.4244 18.7756 13.4174 18.2212 14.2892 17.3155C14.5169 17.0784 18.4839 13.471 18.559 13.1438C18.5687 13.1028 18.5784 12.9503 18.4863 12.8699C18.3967 12.7892 18.2635 12.8168 18.1666 12.8386C18.0286 12.8696 15.8513 14.3102 11.6276 17.16C11.01 17.5848 10.4506 17.7918 9.9468 17.7809C9.39462 17.7691 8.32899 17.468 7.53704 17.2108C6.56829 16.8953 5.79571 16.7284 5.86352 16.1924C5.89743 15.9134 6.28251 15.6279 7.01633 15.3361Z" fill="white"/>
</g>
<defs>
<linearGradient id="paint0_linear_47_81" x1="1550" y1="0" x2="1550" y2="3100" gradientUnits="userSpaceOnUse">
<stop stop-color="#2AABEE"/>
<stop offset="1" stop-color="#229ED9"/>
</linearGradient>
<clipPath id="clip0_47_81">
<rect width="31" height="31" fill="white"/>
</clipPath>
</defs>
</svg>
