<svg width="31" height="31" viewBox="0 0 31 31" fill="none" xmlns="http://www.w3.org/2000/svg">
<g clip-path="url(#clip0_47_77)">
<path d="M0.661836 15.3147C0.661109 17.9193 1.34698 20.4625 2.65116 22.7041L0.537109 30.363L8.4363 28.3079C10.6211 29.4881 13.069 30.1065 15.5566 30.1066H15.5631C23.7751 30.1066 30.4599 23.4761 30.4634 15.3264C30.4649 11.3772 28.9164 7.66371 26.1029 4.86987C23.2899 2.07626 19.5487 0.536959 15.5625 0.535156C7.3496 0.535156 0.665348 7.16531 0.661957 15.3147" fill="#7ADA00"/>
<path d="M0.12957 15.3097C0.128723 18.008 0.83918 20.6422 2.18986 22.964L0 30.8975L8.18243 28.7687C10.4369 29.9884 12.9753 30.6315 15.5582 30.6324H15.5649C24.0715 30.6324 30.9964 23.7634 31 15.3219C31.0015 11.2309 29.3972 7.38389 26.4832 4.48995C23.5688 1.59638 19.6938 0.00168217 15.5649 0C7.05686 0 0.132961 6.86806 0.12957 15.3097ZM5.00238 22.5642L4.69686 22.0829C3.41254 20.0566 2.73466 17.7151 2.73563 15.3106C2.73841 8.29418 8.49327 2.58574 15.5698 2.58574C18.9967 2.58718 22.2173 3.91273 24.6397 6.31775C27.0619 8.72302 28.3948 11.9203 28.3939 15.321C28.3908 22.3374 22.6358 28.0466 15.5649 28.0466H15.5598C13.2575 28.0454 10.9994 27.4319 9.0302 26.2725L8.56157 25.9967L3.70595 27.2599L5.00238 22.5642Z" fill="white"/>
<path d="M11.7069 8.90938C11.4179 8.27219 11.1139 8.25934 10.8391 8.24816C10.6141 8.23855 10.3569 8.23927 10.1 8.23927C9.84276 8.23927 9.42486 8.33527 9.07163 8.71797C8.71804 9.10102 7.72168 10.0267 7.72168 11.9094C7.72168 13.7922 9.10372 15.6117 9.29638 15.8673C9.48929 16.1224 11.9644 20.1096 15.8845 21.6435C19.1424 22.9183 19.8054 22.6647 20.5124 22.6008C21.2196 22.5371 22.7943 21.6754 23.1156 20.7818C23.4371 19.8883 23.4371 19.1224 23.3407 18.9624C23.2443 18.8029 22.9871 18.7072 22.6014 18.5159C22.2156 18.3245 20.3195 17.3987 19.9661 17.271C19.6125 17.1434 19.3554 17.0797 19.0982 17.4629C18.841 17.8454 18.1024 18.7072 17.8773 18.9624C17.6525 19.2182 17.4273 19.25 17.0418 19.0586C16.6559 18.8666 15.4138 18.463 13.9402 17.1595C12.7937 16.1451 12.0197 14.8925 11.7947 14.5093C11.5697 14.1267 11.7706 13.9194 11.964 13.7287C12.1372 13.5572 12.3498 13.2818 12.5428 13.0584C12.7351 12.835 12.7993 12.6755 12.9279 12.4203C13.0566 12.1649 12.9922 11.9414 12.8959 11.75C12.7993 11.5586 12.0498 9.66599 11.7069 8.90938Z" fill="white"/>
</g>
<defs>
<clipPath id="clip0_47_77">
<rect width="31" height="31" fill="white"/>
</clipPath>
</defs>
</svg>
