<svg width="24.000000" height="24.000000" viewBox="0 0 24 24" fill="none" xmlns="http://www.w3.org/2000/svg" xmlns:xlink="http://www.w3.org/1999/xlink">
	<desc>
			Created with Pixso.
	</desc>
	<defs>
		<clipPath id="clip51_211">
			<rect id="solar:chef-hat-heart-line-duotone" width="24.000000" height="24.000000" transform="translate(-0.500000 0.000000)" fill="white" fill-opacity="0"/>
		</clipPath>
	</defs>
	<rect id="solar:chef-hat-heart-line-duotone" width="24.000000" height="24.000000" transform="translate(-0.500000 0.000000)" fill="#FFFFFF" fill-opacity="0"/>
	<g clip-path="url(#clip51_211)">
		<path id="Vector" d="M4.5 14.58L5.25 14.58C5.25 14.43 5.2 14.29 5.12 14.17C5.04 14.05 4.93 13.95 4.79 13.89L4.5 14.58ZM18.5 14.58L18.2 13.89C18.06 13.95 17.95 14.05 17.87 14.17C17.79 14.29 17.75 14.43 17.75 14.58L18.5 14.58ZM15.25 7C15.25 7.19 15.32 7.38 15.46 7.53C15.61 7.67 15.8 7.75 16 7.75C16.19 7.75 16.38 7.67 16.53 7.53C16.67 7.38 16.75 7.19 16.75 7L15.25 7ZM6.25 7C6.25 7.19 6.32 7.38 6.46 7.53C6.61 7.67 6.8 7.75 7 7.75C7.19 7.75 7.38 7.67 7.53 7.53C7.67 7.38 7.75 7.19 7.75 7L6.25 7ZM6.5 4.25C4.97 4.25 3.51 4.85 2.43 5.93C1.35 7.01 0.75 8.47 0.75 10L2.25 10C2.25 8.87 2.69 7.79 3.49 6.99C4.29 6.19 5.37 5.75 6.5 5.75L6.5 4.25ZM16.5 5.75C17.62 5.75 18.7 6.19 19.5 6.99C20.3 7.79 20.75 8.87 20.75 10L22.25 10C22.25 8.47 21.64 7.01 20.56 5.93C19.48 4.85 18.02 4.25 16.5 4.25L16.5 5.75ZM14.5 21.25L8.5 21.25L8.5 22.75L14.5 22.75L14.5 21.25ZM8.5 21.25C7.53 21.25 6.88 21.24 6.4 21.18C5.94 21.12 5.74 21.01 5.61 20.88L4.55 21.94C5.01 22.4 5.57 22.58 6.2 22.66C6.81 22.75 7.57 22.75 8.5 22.75L8.5 21.25ZM3.75 18C3.75 18.92 3.74 19.68 3.83 20.29C3.91 20.92 4.1 21.48 4.55 21.94L5.61 20.88C5.48 20.75 5.37 20.55 5.31 20.09C5.25 19.61 5.25 18.96 5.25 18L3.75 18ZM17.75 18C17.75 18.96 17.74 19.61 17.68 20.09C17.62 20.55 17.51 20.75 17.38 20.88L18.44 21.94C18.89 21.48 19.08 20.92 19.16 20.29C19.25 19.68 19.25 18.92 19.25 18L17.75 18ZM14.5 22.75C15.42 22.75 16.18 22.75 16.79 22.66C17.42 22.58 17.99 22.4 18.44 21.94L17.38 20.88C17.25 21.01 17.05 21.12 16.59 21.18C16.11 21.24 15.46 21.25 14.5 21.25L14.5 22.75ZM6.5 5.75C6.71 5.75 6.92 5.76 7.12 5.79L7.34 4.31C7.06 4.27 6.78 4.25 6.5 4.25L6.5 5.75ZM11.5 1.25C10.4 1.25 9.33 1.59 8.44 2.23C7.54 2.87 6.87 3.77 6.52 4.81L7.94 5.29C8.19 4.55 8.67 3.9 9.31 3.45C9.95 2.99 10.71 2.75 11.5 2.75L11.5 1.25ZM6.52 4.81C6.34 5.35 6.24 5.92 6.25 6.5L7.75 6.5C7.75 6.07 7.81 5.67 7.94 5.29L6.52 4.81ZM16.5 4.25C16.21 4.25 15.93 4.27 15.65 4.31L15.87 5.79C16.08 5.76 16.29 5.75 16.5 5.75L16.5 4.25ZM11.5 2.75C12.28 2.75 13.04 2.99 13.68 3.45C14.32 3.9 14.79 4.55 15.05 5.29L16.47 4.81C16.11 3.77 15.45 2.87 14.55 2.23C13.66 1.59 12.59 1.25 11.5 1.25L11.5 2.75ZM15.05 5.29C15.18 5.67 15.25 6.07 15.25 6.5L16.75 6.5C16.75 5.91 16.65 5.34 16.47 4.81L15.05 5.29L15.05 5.29ZM5.25 18L5.25 14.58L3.75 14.58L3.75 18L5.25 18ZM4.79 13.89C4.04 13.56 3.39 13.02 2.94 12.32C2.49 11.63 2.25 10.82 2.25 10L0.75 10C0.75 11.11 1.07 12.21 1.68 13.14C2.3 14.08 3.17 14.82 4.2 15.27L4.79 13.89ZM17.75 14.58L17.75 18L19.25 18L19.25 14.58L17.75 14.58ZM20.75 10C20.75 10.82 20.5 11.63 20.05 12.32C19.6 13.02 18.95 13.56 18.2 13.89L18.79 15.27C19.82 14.82 20.69 14.08 21.31 13.14C21.92 12.21 22.25 11.11 22.25 10L20.75 10ZM15.25 6.5L15.25 7L16.75 7L16.75 6.5L15.25 6.5ZM6.25 6.5L6.25 7L7.75 7L7.75 6.5L6.25 6.5Z" fill="#1F1711" fill-opacity="1.000000" fill-rule="nonzero"/>
		<g opacity="0.700000">
			<path id="Vector" d="M11.5 9.99L10.98 10.53C11.12 10.67 11.3 10.74 11.5 10.74C11.69 10.74 11.87 10.67 12.01 10.53L11.5 9.99ZM10.98 13.06C10.56 12.75 10.1 12.37 9.75 11.97C9.39 11.54 9.25 11.21 9.25 11L7.75 11C7.75 11.77 8.19 12.45 8.62 12.95C9.07 13.47 9.63 13.93 10.09 14.27L10.98 13.06ZM9.25 11C9.25 10.42 9.51 10.17 9.74 10.09C9.99 10 10.45 10.03 10.98 10.53L12.01 9.45C11.19 8.66 10.15 8.35 9.24 8.67C8.31 9 7.75 9.9 7.75 11L9.25 11ZM12.89 14.27C13.35 13.93 13.92 13.47 14.37 12.95C14.8 12.45 15.25 11.77 15.25 11L13.75 11C13.75 11.21 13.6 11.54 13.24 11.97C12.89 12.37 12.43 12.75 12.01 13.06L12.9 14.27L12.89 14.27ZM15.25 11C15.25 9.9 14.68 9 13.75 8.67C12.84 8.35 11.8 8.66 10.98 9.45L12.01 10.53C12.54 10.03 13 10 13.25 10.09C13.48 10.17 13.75 10.42 13.75 11L15.25 11ZM10.1 14.27C10.46 14.54 10.88 14.88 11.5 14.88L11.5 13.38C11.47 13.38 11.46 13.38 11.4 13.35C11.26 13.26 11.11 13.16 10.98 13.06L10.09 14.27L10.1 14.27ZM12.01 13.06C11.88 13.16 11.73 13.26 11.59 13.35C11.54 13.38 11.52 13.38 11.5 13.38L11.5 14.88C12.11 14.88 12.53 14.54 12.89 14.27L12.01 13.06Z" fill="#1F1711" fill-opacity="1.000000" fill-rule="nonzero"/>
		</g>
		<g opacity="0.700000">
			<path id="Vector" d="M4.5 18L18.5 18" stroke="#1F1711" stroke-opacity="1.000000" stroke-width="1.500000" stroke-linejoin="round" stroke-linecap="round"/>
		</g>
	</g>
</svg>
