<svg width="29" height="29" viewBox="0 0 29 29" fill="none" xmlns="http://www.w3.org/2000/svg">
<path d="M12.0837 4.83333C10.1608 4.83333 8.31677 5.59717 6.95714 6.95681C5.5975 8.31644 4.83366 10.1605 4.83366 12.0833C4.83366 14.0061 5.5975 15.8502 6.95714 17.2099C8.31677 18.5695 10.1608 19.3333 12.0837 19.3333C14.0065 19.3333 15.8505 18.5695 17.2102 17.2099C18.5698 15.8502 19.3337 14.0061 19.3337 12.0833C19.3337 10.1605 18.5698 8.31644 17.2102 6.95681C15.8505 5.59717 14.0065 4.83333 12.0837 4.83333ZM2.41699 12.0833C2.41721 10.545 2.78459 9.02884 3.48859 7.661C4.19259 6.29316 5.21288 5.11309 6.46467 4.21887C7.71646 3.32465 9.1636 2.74211 10.6858 2.51965C12.208 2.29719 13.7613 2.44125 15.2167 2.93984C16.672 3.43844 17.9873 4.27717 19.0533 5.38634C20.1193 6.49551 20.9052 7.84309 21.3457 9.31706C21.7861 10.791 21.8684 12.3489 21.5857 13.861C21.303 15.3732 20.6635 16.7961 19.7203 18.0114L26.2296 24.5207C26.4497 24.7486 26.5715 25.0538 26.5688 25.3706C26.566 25.6875 26.4389 25.9905 26.2149 26.2146C25.9909 26.4386 25.6878 26.5657 25.371 26.5684C25.0542 26.5712 24.7489 26.4494 24.521 26.2293L18.0117 19.72C16.5828 20.8294 14.8713 21.5155 13.0718 21.7004C11.2723 21.8854 9.45697 21.5616 7.83232 20.766C6.20766 19.9704 4.83884 18.7349 3.88152 17.2C2.9242 15.6651 2.41679 13.8923 2.41699 12.0833Z" fill="#707070"/>
</svg>
