<svg width="29" height="29" viewBox="0 0 29 29" fill="none" xmlns="http://www.w3.org/2000/svg">
<g clip-path="url(#clip0_37_108)">
<path d="M0.618633 14.3264C0.617953 16.763 1.25958 19.1421 2.47962 21.2391L0.501953 28.4039L7.89152 26.4814C9.93537 27.5854 12.2254 28.1639 14.5525 28.1641H14.5586C22.2407 28.1641 28.4942 21.9613 28.4975 14.3373C28.499 10.643 27.0503 7.16906 24.4183 4.55547C21.7868 1.94209 18.287 0.502098 14.558 0.500412C6.87493 0.500412 0.621918 6.70282 0.618746 14.3264" fill="#7ADA00"/>
<path d="M0.121211 14.322C0.120418 16.8462 0.785039 19.3104 2.04858 21.4825L0 28.9041L7.65453 26.9127C9.7636 28.0537 12.1382 28.6553 14.5545 28.6562H14.5607C22.5185 28.6562 28.9966 22.2303 29 14.3334C29.0014 10.5063 27.5006 6.90751 24.7746 4.20028C22.0483 1.49339 18.4233 0.00157364 14.5607 0C6.60158 0 0.124383 6.42496 0.121211 14.322ZM4.67965 21.1084L4.39384 20.6582C3.19238 18.7627 2.55823 16.5722 2.55914 14.3229C2.56174 7.75907 7.94532 2.41891 14.5653 2.41891C17.7711 2.42026 20.7839 3.66029 23.05 5.91016C25.316 8.16024 26.5629 11.1513 26.5621 14.3325C26.5591 20.8963 21.1754 26.2371 14.5607 26.2371H14.556C12.4021 26.236 10.2898 25.6621 8.44761 24.5775L8.00921 24.3195L3.46686 25.5012L4.67965 21.1084Z" fill="white"/>
<path d="M10.9517 8.33446C10.6814 7.73839 10.397 7.72636 10.1399 7.71591C9.92947 7.70692 9.68886 7.70759 9.44848 7.70759C9.20787 7.70759 8.81693 7.7974 8.48649 8.15541C8.15571 8.51375 7.22363 9.3797 7.22363 11.1409C7.22363 12.9023 8.51651 14.6044 8.69674 14.8435C8.8772 15.0821 11.1927 18.8121 14.8598 20.2471C17.9075 21.4395 18.5277 21.2024 19.1892 21.1426C19.8508 21.083 21.3239 20.2768 21.6244 19.4409C21.9252 18.6051 21.9252 17.8886 21.835 17.7389C21.7448 17.5897 21.5042 17.5001 21.1434 17.3212C20.7825 17.1421 19.0087 16.2761 18.6781 16.1566C18.3473 16.0372 18.1068 15.9777 17.8662 16.3361C17.6256 16.694 16.9347 17.5001 16.7241 17.7389C16.5137 17.9782 16.3031 18.008 15.9424 17.8289C15.5814 17.6493 14.4195 17.2717 13.041 16.0523C11.9684 15.1034 11.2443 13.9316 11.0338 13.5731C10.8234 13.2152 11.0113 13.0212 11.1922 12.8428C11.3543 12.6824 11.5531 12.4248 11.7337 12.2159C11.9136 12.0068 11.9736 11.8576 12.0939 11.6189C12.2144 11.3799 12.1541 11.1708 12.064 10.9918C11.9736 10.8127 11.2725 9.04227 10.9517 8.33446Z" fill="white"/>
</g>
<defs>
<clipPath id="clip0_37_108">
<rect width="29" height="29" fill="white"/>
</clipPath>
</defs>
</svg>
